<svg xmlns="http://www.w3.org/2000/svg" width="27.624" height="38.004" viewBox="0 0 27.624 38.004">
  <path id="Path_675" data-name="Path 675" d="M6425.686,392.51c-.182.155-.254.213-.322.276q-.342.318-.683.638a3.862,3.862,0,0,1-.528-.808c-.252-.728-.4-1.493-.658-2.218a10.678,10.678,0,0,0-2.217-4.028c-1,2.392-1,2.392-1.521,2.647a43.025,43.025,0,0,0-.781-4.407c-.407-1.459-1.08-2.844-1.69-4.4l-1.192,2.106c-.517-1.23-.871-2.275-1.384-3.235a5.449,5.449,0,0,0-2.218-2.527c-.2,5.153-2.757,8.834-7.035,10.152l-.539-1.93a9.5,9.5,0,0,0-2.868,4.414c-.526,1.647-.9,3.342-1.355,5.044l-.6-.279a16.526,16.526,0,0,0-1.381,5.459c-.662,7.632,5.632,15.053,12.924,15.143a13.031,13.031,0,0,0,8.957-2.991C6426.6,406.432,6426.984,399.748,6425.686,392.51Zm-7.322,15.935a2.148,2.148,0,0,0-1.389,1.251,5.153,5.153,0,0,1-5.393,2.847,4.845,4.845,0,0,1-4.049-4.608,1.417,1.417,0,0,0-.525-.932,4.869,4.869,0,0,1-2.248-5.294,4.79,4.79,0,0,1,3.74-3.905,4.6,4.6,0,0,1,5.267,1.971c.077.106.164.206.246.309l.1-.283a16.693,16.693,0,0,1,3.8-.234,4.2,4.2,0,0,1,3.46,4.032A4.664,4.664,0,0,1,6418.363,408.445Z" transform="translate(-6398.67 -376.555)" fill="#8989a2"/>
</svg>
